<svg xmlns="http://www.w3.org/2000/svg" viewBox="0 0 24 24" fill="none" stroke="currentColor" color="white" stroke-width="2" stroke-linecap="round" stroke-linejoin="round" class="feather feather-eye-off" width="24" height="24">
  <path d="M17.94 17.94A10.94 10.94 0 0 1 12 20c-5 0-9.27-3-11-8 1.23-3.06 3.51-5.64 6.45-7.05"></path>
  <path d="M1 1l22 22"></path>
  <path d="M9.88 9.88A3 3 0 0 0 12 15a3 3 0 0 0 2.12-.88M16.12 16.12A3 3 0 0 0 15 12m2.91-2.91c1.22.93 2.28 2.05 3.09 3.41"></path>
</svg>
